<svg width="212" height="60" viewBox="0 0 212 60" fill="none" xmlns="http://www.w3.org/2000/svg">
<g filter="url(#filter0_d_64_1634)">
<mask id="path-1-inside-1_64_1634" fill="white">
<path fill-rule="evenodd" clip-rule="evenodd" d="M3.41972 6.98456C1.89593 4.31793 3.82139 1 6.89268 1H206C208.209 1 210 2.79086 210 5V53C210 55.2091 208.209 57 206 57H6.89269C3.8214 57 1.89593 53.6821 3.41972 51.0154L14.8659 30.9846C15.5686 29.7548 15.5686 28.2452 14.8659 27.0154L3.41972 6.98456Z"/>
</mask>
<path fill-rule="evenodd" clip-rule="evenodd" d="M3.41972 6.98456C1.89593 4.31793 3.82139 1 6.89268 1H206C208.209 1 210 2.79086 210 5V53C210 55.2091 208.209 57 206 57H6.89269C3.8214 57 1.89593 53.6821 3.41972 51.0154L14.8659 30.9846C15.5686 29.7548 15.5686 28.2452 14.8659 27.0154L3.41972 6.98456Z" fill="white"/>
<path d="M14.8659 30.9846L13.9977 30.4884L14.8659 30.9846ZM14.8659 27.0154L13.9977 27.5116L14.8659 27.0154ZM3.41972 51.0154L2.55148 50.5193L3.41972 51.0154ZM3.41972 6.98456L2.55148 7.48069L3.41972 6.98456ZM206 0H6.89268V2H206V0ZM211 53V5H209V53H211ZM6.89269 58H206V56H6.89269V58ZM13.9977 30.4884L2.55148 50.5193L4.28796 51.5116L15.7342 31.4807L13.9977 30.4884ZM13.9977 27.5116C14.5247 28.4339 14.5247 29.5661 13.9977 30.4884L15.7342 31.4807C16.6126 29.9435 16.6126 28.0565 15.7342 26.5193L13.9977 27.5116ZM2.55148 7.48069L13.9977 27.5116L15.7342 26.5193L4.28796 6.48842L2.55148 7.48069ZM6.89269 56C4.58922 56 3.14512 53.5116 4.28796 51.5116L2.55148 50.5193C0.646742 53.8526 3.05358 58 6.89269 58V56ZM209 53C209 54.6569 207.657 56 206 56V58C208.761 58 211 55.7614 211 53H209ZM6.89268 0C3.05357 0 0.646744 4.14741 2.55148 7.48069L4.28796 6.48842C3.14512 4.48844 4.58922 2 6.89268 2V0ZM206 2C207.657 2 209 3.34315 209 5H211C211 2.23858 208.761 0 206 0V2Z" fill="#C1C9D2" mask="url(#path-1-inside-1_64_1634)"/>
</g>
<defs>
<filter id="filter0_d_64_1634" x="0.88678" y="0" width="211.113" height="60" filterUnits="userSpaceOnUse" color-interpolation-filters="sRGB">
<feFlood flood-opacity="0" result="BackgroundImageFix"/>
<feColorMatrix in="SourceAlpha" type="matrix" values="0 0 0 0 0 0 0 0 0 0 0 0 0 0 0 0 0 0 127 0" result="hardAlpha"/>
<feOffset dy="1"/>
<feGaussianBlur stdDeviation="1"/>
<feColorMatrix type="matrix" values="0 0 0 0 0.215686 0 0 0 0 0.254902 0 0 0 0 0.317647 0 0 0 0.08 0"/>
<feBlend mode="normal" in2="BackgroundImageFix" result="effect1_dropShadow_64_1634"/>
<feBlend mode="normal" in="SourceGraphic" in2="effect1_dropShadow_64_1634" result="shape"/>
</filter>
</defs>
</svg>
